HIERARCHY
ROOT root
{
	OFFSET 0.000000 0.000000 0.000000
	CHANNELS 6 Xposition Yposition Zposition Zrotation Yrotation Xrotation
	JOINT lhip
	{
		OFFSET 0.058581 -0.082280 -0.017664
		CHANNELS 3 Zrotation Yrotation Xrotation
		JOINT lknee
		{
			OFFSET 0.043451 -0.386469 0.008037
			CHANNELS 3 Zrotation Yrotation Xrotation
			JOINT lankle
			{
				OFFSET -0.014790 -0.426874 -0.037428
				CHANNELS 3 Zrotation Yrotation Xrotation
				JOINT ltoe
				{
					OFFSET 0.041054 -0.060286 0.122042
					CHANNELS 3 Zrotation Yrotation Xrotation
					End Site
					{
						OFFSET 0.000000 0.000000 0.000000
					}
				}
			}
		}
	}
	JOINT rhip
	{
		OFFSET -0.060310 -0.090513 -0.013543
		CHANNELS 3 Zrotation Yrotation Xrotation
		JOINT rknee
		{
			OFFSET -0.043257 -0.383688 -0.004843
			CHANNELS 3 Zrotation Yrotation Xrotation
			JOINT rankle
			{
				OFFSET 0.019056 -0.420046 -0.034562
				CHANNELS 3 Zrotation Yrotation Xrotation
				JOINT rtoe
				{
					OFFSET -0.034840 -0.062106 0.130323
					CHANNELS 3 Zrotation Yrotation Xrotation
					End Site
					{
						OFFSET 0.000000 0.000000 0.000000
					}
				}
			}
		}
	}
	JOINT lowerback
	{
		OFFSET 0.004439 0.124404 -0.038385
		CHANNELS 3 Zrotation Yrotation Xrotation
		JOINT upperback
		{
			OFFSET 0.004488 0.137956 0.026820
			CHANNELS 3 Zrotation Yrotation Xrotation
			JOINT chest
			{
				OFFSET -0.002265 0.056032 0.002855
				CHANNELS 3 Zrotation Yrotation Xrotation
				JOINT lowerneck
				{
					OFFSET -0.013390 0.211636 -0.033468
					CHANNELS 3 Zrotation Yrotation Xrotation
					JOINT upperneck
					{
						OFFSET 0.010113 0.088937 0.050410
						CHANNELS 3 Zrotation Yrotation Xrotation
						End Site
						{
							OFFSET 0.000000 0.000000 0.000000
						}
					}
				}
				JOINT lclavicle
				{
					OFFSET 0.071702 0.114000 -0.018898
					CHANNELS 3 Zrotation Yrotation Xrotation
					JOINT lshoulder
					{
						OFFSET 0.122921 0.045205 -0.019046
						CHANNELS 3 Zrotation Yrotation Xrotation
						JOINT lelbow
						{
							OFFSET 0.255332 -0.015649 -0.022946
							CHANNELS 3 Zrotation Yrotation Xrotation
							JOINT lwrist
							{
								OFFSET 0.265709 0.012698 -0.007375
								CHANNELS 3 Zrotation Yrotation Xrotation
								End Site
								{
									OFFSET 0.000000 0.000000 0.000000
								}
							}
						}
					}
				}
				JOINT rclavicle
				{
					OFFSET -0.082954 0.112472 -0.023707
					CHANNELS 3 Zrotation Yrotation Xrotation
					JOINT rshoulder
					{
						OFFSET -0.113228 0.046853 -0.008472
						CHANNELS 3 Zrotation Yrotation Xrotation
						JOINT relbow
						{
							OFFSET -0.260127 -0.014369 -0.031269
							CHANNELS 3 Zrotation Yrotation Xrotation
							JOINT rwrist
							{
								OFFSET -0.269108 0.006794 -0.006027
								CHANNELS 3 Zrotation Yrotation Xrotation
								End Site
								{
									OFFSET 0.000000 0.000000 0.000000
								}
							}
						}
					}
				}
			}
		}
	}
}
MOTION
Frames: 5
Frame Time: 0.033333
-0.065522 0.559978 1.026224 -17.192372 2.958862 79.930650 6.560995 17.751313 19.125496 -4.897667 17.619393 -6.743246 5.098728 28.969779 -14.390855 0.000000 -0.000000 0.000000 1.099448 9.211707 -9.095676 9.412529 14.982804 29.857683 8.644671 5.565907 -12.519883 0.000000 -0.000000 0.000000 -2.536174 -8.039645 -1.392299 2.339589 -9.940939 12.776158 -1.686811 -5.208254 0.241890 3.254395 19.098780 10.344415 1.421906 29.421540 10.432060 -24.779621 -0.948944 -3.413062 -41.355886 0.840409 6.096619 17.595744 -21.221152 -25.561017 2.504029 -7.488011 -8.209322 27.109801 3.999484 -6.181249 47.561801 11.023740 22.056106 1.072960 30.263237 4.227461 1.130577 9.197214 3.970301 
-0.050944 0.561328 1.023486 -17.917488 2.469258 79.313847 5.530727 18.291602 19.751143 -5.288310 17.307161 -6.983845 5.345644 29.362427 -14.881420 0.000000 -0.000000 0.000000 0.262596 8.573578 -11.672319 9.780353 12.762728 34.589283 8.793926 4.836892 -11.080457 0.000000 -0.000000 0.000000 -2.173557 -8.289885 0.085873 2.272312 -9.838913 13.444343 -1.502101 -5.134263 0.450707 1.700786 24.296474 10.383847 -0.246329 33.518886 8.258445 -24.348349 -2.774111 -2.788528 -39.701976 -0.999658 4.921059 19.092095 -23.432159 -26.975801 3.107158 -7.467186 -9.454066 27.013697 3.212568 -5.135792 46.686830 8.958883 19.110484 -1.855347 30.162214 -0.157815 0.188711 8.920699 2.857288 
-0.036902 0.563372 1.023469 -17.593553 2.312976 79.185210 4.635377 18.299669 19.171654 -5.305651 16.906995 -6.119682 5.263616 29.375867 -15.372270 0.000000 -0.000000 0.000000 -0.655679 7.680790 -14.644063 9.951429 10.314414 38.879944 9.636093 4.115565 -8.325918 0.000000 -0.000000 0.000000 -1.339526 -8.523140 1.038445 2.222845 -9.771479 14.264783 -1.421232 -5.087146 0.370880 -0.902643 27.482681 9.796250 -2.193849 35.466855 6.003872 -24.699992 -5.377941 -1.602117 -37.943810 -2.776336 3.628056 20.828853 -25.501132 -28.960980 4.185038 -7.464830 -10.242204 26.885608 3.035622 -3.535391 45.983710 5.606938 16.024795 -3.989837 29.670150 -3.551559 -1.125182 8.716048 1.891863 
-0.024099 0.565059 1.026276 -16.218535 2.490004 79.371108 3.901243 17.662717 18.032945 -5.012669 16.192583 -4.757407 4.911789 29.019169 -15.820043 0.000000 -0.000000 0.000000 -1.526018 6.855412 -17.517210 9.864011 7.751654 42.521135 10.634967 3.260381 -5.305546 0.000000 -0.000000 0.000000 -0.269060 -8.742823 1.361961 2.278276 -9.767628 15.559538 -1.297631 -5.166042 -0.075786 -3.636830 29.599296 9.252571 -4.241006 35.976373 3.404428 -25.103846 -8.188829 -0.404248 -37.331113 -4.446953 2.653565 23.229416 -27.663567 -31.417184 4.653013 -7.859424 -10.086111 26.516510 3.512352 -2.060319 46.122576 1.258106 13.801488 -5.497343 27.613169 -6.343568 -1.535402 8.499697 0.657145 
-0.013132 0.565800 1.030114 -14.158265 2.887544 79.482430 3.534137 16.511345 17.452451 -4.658459 14.566340 -3.848940 4.404722 28.330617 -15.992249 0.000000 -0.000000 0.000000 -2.238952 6.487064 -19.674170 10.144324 5.671542 45.554062 10.730148 2.968957 -4.316410 0.000000 -0.000000 0.000000 0.639142 -9.095261 1.977659 2.535103 -9.673183 16.421105 -1.035269 -5.346876 -0.463350 -5.361226 31.064666 8.913755 -6.104923 35.683169 1.198620 -24.605882 -9.667931 -0.080992 -39.014018 -6.820145 2.671668 25.997223 -30.045194 -33.571261 3.565133 -8.504119 -9.192551 25.685131 3.498013 -1.583585 47.429396 -2.689285 13.200587 -6.203871 23.759395 -7.419354 0.854354 7.668260 -0.468320 
